/* XPM */
static char *c053797b4cc345b08ba2022981fb3119Vuov8tICj1qfwQFp[] = {
/* columns rows colors chars-per-pixel */
"64 64 214 2 ",
"   c None",
".  c black",
"X  c #050500",
"o  c #080800",
"O  c #090900",
"+  c #0E0E00",
"@  c #0F0F00",
"#  c #111100",
"$  c #141400",
"%  c #151500",
"&  c #1F1E00",
"*  c #1F1F00",
"=  c #202000",
"-  c #212100",
";  c #222200",
":  c #232300",
">  c #252400",
",  c #252500",
"<  c #262600",
"1  c #272600",
"2  c #272700",
"3  c #292900",
"4  c #2C2B00",
"5  c #313000",
"6  c #323100",
"7  c #333200",
"8  c #333300",
"9  c #353500",
"0  c #363500",
"q  c #393800",
"w  c #3C3B00",
"e  c #3E3D00",
"r  c #3E3E00",
"t  c #3F3F00",
"y  c #424100",
"u  c #444300",
"i  c #454400",
"p  c #464600",
"a  c #4A4A00",
"s  c #4B4B00",
"d  c #4C4B00",
"f  c #4F4E00",
"g  c #525200",
"h  c #535200",
"j  c #545300",
"k  c #555400",
"l  c #565600",
"z  c #585700",
"x  c #5A5900",
"c  c #5B5A00",
"v  c #5C5B00",
"b  c #5E5D00",
"n  c #616000",
"m  c #626100",
"M  c #656400",
"N  c #666500",
"B  c #666600",
"V  c #676600",
"C  c #686700",
"Z  c #696800",
"A  c #6A6900",
"S  c #6B6A00",
"D  c #6C6B00",
"F  c #6E6D00",
"G  c #6F6E00",
"H  c #706F00",
"J  c #717000",
"K  c #737200",
"L  c #747300",
"P  c #757400",
"I  c #767500",
"U  c #777500",
"Y  c #777600",
"T  c #787700",
"R  c #7A7900",
"E  c #7B7900",
"W  c #7C7B00",
"Q  c #7E7D00",
"!  c #807F00",
"~  c #838200",
"^  c #848300",
"/  c #858400",
"(  c #878600",
")  c #888600",
"_  c #898800",
"`  c #8A8900",
"'  c #8B8A00",
"]  c #8C8A00",
"[  c #8D8C00",
"{  c #8E8D00",
"}  c #8F8E00",
"|  c #908E00",
" . c #908F00",
".. c #919000",
"X. c #929100",
"o. c #949300",
"O. c #959300",
"+. c #959400",
"@. c #969500",
"#. c #989700",
"$. c #999800",
"%. c #9A9900",
"&. c #9B9A00",
"*. c #9C9B00",
"=. c #9D9C00",
"-. c #9E9D00",
";. c #9F9D00",
":. c #9F9E00",
">. c #A19F00",
",. c #A2A000",
"<. c #A4A300",
"1. c #A5A300",
"2. c #A5A400",
"3. c #A6A400",
"4. c #A8A700",
"5. c #AAA800",
"6. c #AAA900",
"7. c #ABA900",
"8. c #ABAA00",
"9. c #AFAD00",
"0. c #AFAE00",
"q. c #B0AE00",
"w. c #B0AF00",
"e. c #B1AF00",
"r. c #B1B000",
"t. c #B2B000",
"y. c #B2B100",
"u. c #B3B100",
"i. c #B3B200",
"p. c #B4B200",
"a. c #B4B300",
"s. c #B6B500",
"d. c #B8B600",
"f. c #BBB900",
"g. c #BBBA00",
"h. c #BCBA00",
"j. c #BFBD00",
"k. c #C0BE00",
"l. c #C2C000",
"z. c #C2C100",
"x. c #C3C200",
"c. c #C4C300",
"v. c #C5C300",
"b. c #C5C400",
"n. c #C6C500",
"m. c #C8C600",
"M. c #CAC800",
"N. c #CAC900",
"B. c #CBC900",
"V. c #CCCA00",
"C. c #CDCB00",
"Z. c #CDCC00",
"A. c #CECC00",
"S. c #CFCD00",
"D. c #CFCE00",
"F. c #D0CE00",
"G. c #D1CF00",
"H. c #D1D000",
"J. c #D2D000",
"K. c #D2D100",
"L. c #D3D100",
"P. c #D4D200",
"I. c #D6D300",
"U. c #D5D400",
"Y. c #D6D500",
"T. c #DAD800",
"R. c #DBD900",
"E. c #DBDA00",
"W. c #DCDA00",
"Q. c #DCDB00",
"!. c #DEDC00",
"~. c #DFDD00",
"^. c #E0DE00",
"/. c #E1DF00",
"(. c #E2E000",
"). c #E3E100",
"_. c #E4E200",
"`. c #E5E300",
"'. c #E6E300",
"]. c #E6E400",
"[. c #E7E400",
"{. c #E6E500",
"}. c #E7E500",
"|. c #E8E600",
" X c #E9E700",
".X c #EAE800",
"XX c #EBE800",
"oX c #EBE900",
"OX c #ECEA00",
"+X c #EDEB00",
"@X c #EEEC00",
"#X c #EFED00",
"$X c #EFEE00",
"%X c #F0EE00",
"&X c #F1EF00",
"*X c #F2EF00",
"=X c #F1F000",
"-X c #F2F000",
";X c #F2F100",
":X c #F3F100",
">X c #F4F100",
",X c #F4F200",
"<X c #F5F300",
"1X c #F6F300",
"2X c #F6F400",
"3X c #F7F400",
"4X c #F7F500",
"5X c #F8F600",
"6X c #F9F600",
"7X c #F9F700",
"8X c #FAF700",
"9X c #FAF800",
"0X c #FBF900",
"qX c #FCFA00",
/* pixels */
"                                                                . . . . . . . . .                                               ",
"                                                    . . . . f L { :.6.q.a.q.6.>. .T k + . . .                                   ",
"                                              . . 7 ! 9.V./.@X,X7X9X9X9X0X0X0X0X7X4X@X'.S.a.) e . .                             ",
"                                        . . 7 o.m. X7X9X7X4X,X-X&X&X&X&X&X@X&X&X&X-X-X,X7X9X7X.XV.:.p . .                       ",
"                                    . . D h. X7X7X,X&X&X@X&X&X-X-X-X-X-X-X-X-X-X-X-X&X&X@X&X&X,X9X9XXXb.R . .                   ",
"                                . . K M.,X9X,X&X&X&X-X-X-X-X-X-X-X-X-X-X-X-X-X-X-X-X-X-X-X-X-X&X&X&X,X9X7XH.^ . .               ",
"                              . h c.,X7X-X&X&X-X&X-X-X-X-X-X-X-X-X-X-X-X-X-X-X-X-X-X-X-X-X-X-X-X-X-X&X@X&X4X7XS.A .             ",
"                          . . <.&X9X-X&X-X-X-X-X-X-X-X-X-X-X-X-X-X-X-X-X-X-X-X-X-X-X-X-X-X-X-X-X-X-X-X-X-X&X&X4X,Xa.. .         ",
"                        . d P.9X-X&X-X-X-X-X-X-X-X-X-X-X-X-X-X-X-X-X-X-X-X-X-X-X-X-X-X-X-X-X-X-X-X-X-X-X-X-X-X@X-X0X!.A .       ",
"                      . ! @X7X&X&X-X-X-X-X-X-X-X-X-X-X-X-X-X-X-X-X-X-X-X-X-X-X-X-X-X-X-X-X-X-X-X-X-X-X-X-X-X-X-X&X&X7X-X@..     ",
"                    . *.4X,X&X&X-X-X-X-X-X-X-X-X-X-X-X-X-X-X-X-X-X-X-X-X-X-X-X-X-X-X-X-X-X-X-X-X-X-X-X-X-X-X-X-X&X&XXX4X0XY .   ",
"                  . 6.9X-X&X-X-X-X-X-X-X-X-X-X-X-X-X-X-X-X-X-X-X-X-X-X-X-X-X-X-X-X-X-X-X-X-X-X-X-X-X-X-X-X-X-X-X-X&X7X&X ..     ",
"                . 6.9X&X&X-X-X-X-X-X-X-X-X-X-X-X-X-X-X-X-X-X-X-X-X-X-X-X-X-X-X-X-X-X-X-X-X-X-X-X-X-X-X-X-X-X-X-X@X7X'.C .       ",
"              . &.9X-X&X-X-X-X-X-X-X-X-X-X-X-X-X-X-X-X-X-X-X-X-X-X-X-X&X@X&X&X&X-X-X-X-X-X-X-X-X-X-X-X-X-X-X&X&X0XS., .         ",
"            . W 4X&X&X-X-X-X-X-X-X-X-X-X-X-X-X-X-X-X-X-X-X-X-X-X-X-X&X,X7X7X7X&X&X-X-X-X-X-X-X-X-X-X-X-X-X&X-X4Xa.. .           ",
"          . e XX,X&X-X-X-X-X-X-X-X-X-X-X-X-X-X-X-X-X-X-X-X-X-X-X-X&X4X.XV.l.T.4X,X&X-X-X-X-X-X-X-X-X-X-X@X7X-X...               ",
"          . V.9X&X&X-X-X-X-X-X-X-X-X-X-X-X-X-X-X-X-X-X-X-X-X-X-X&X7Xm.0 . . . { @X-X&X-X-X-X-X-X-X-X-X&X7X'.N .                 ",
"        .  .7X&X-X-X-X-X-X-X-X-X-X-X-X-X-X-X-X-X-X-X-X-X-X-X-X-X,XQ.. . : = , . &.7X&X-X-X-X-X-X-X-X-X9XS., .                   ",
"      . % '.,X-X-X-X-X-X-X-X-X-X-X-X-X-X-X-X-X-X-X-X-X-X-X-X-X@X9Xq.. 4 . . @ . u .X,X-X-X-X-X-X&X,X4Xi.. .                     ",
"      . 3.7X&X-X-X-X-X-X-X-X-X-X-X-X-X-X-X-X-X-X-X-X-X-X-X-X-X&X9Xf.. 8 o o 2 . z &X-X-X-X-X-X@X4X&X ..                         ",
"    . & '.,X&X-X-X-X-X-X-X-X-X-X-X-X-X-X-X-X-X-X-X-X-X-X-X-X-X&X-XXXb . . . . . k.7X&X&X-X-X@X7X).N .                           ",
"    . @.7X&X-X-X-X-X-X-X-X-X-X-X-X-X-X-X-X-X-X-X-X-X-X-X-X-X-X-X&X,X}.@.f e A b.,X&X-X-X&X&X0XF.: .                             ",
"    . H.4X&X-X-X-X-X-X-X-X-X-X-X-X-X-X-X-X-X-X-X-X-X-X-X-X-X-X-X&X&X,X7XXX.X-X7X&X-X-X&X-X7Xi.. .                               ",
"  . x -X-X&X-X-X-X-X-X-X-X-X-X-X-X-X-X-X-X-X-X-X-X-X-X-X-X-X-X-X-X&X&X&X-X,X-X&X-X-X@X4X-X{ .                                   ",
"  . &.9X@X-X-X-X-X-X-X-X-X-X-X-X-X-X-X-X-X-X-X-X-X-X-X-X-X-X-X-X-X-X-X-X&X&X-X-X&X@X9X).N .                                     ",
"  . l.9X&X-X-X-X-X-X-X-X-X-X-X-X-X-X-X-X-X-X-X-X-X-X-X-X-X-X-X-X-X-X-X-X-X-X-X&X&X9XS.: .                                       ",
"  . Q.4X&X&X-X-X-X-X-X-X-X-X-X-X-X-X-X-X-X-X-X-X-X-X-X-X-X-X-X-X-X-X-X-X-X-X&X-X9Xi.. .                                         ",
". p XX,X&X-X-X-X-X-X-X-X-X-X-X-X-X-X-X-X-X-X-X-X-X-X-X-X-X-X-X-X-X-X-X-X-X@X4X&X{ .                                             ",
". A ,X-X-X-X-X-X-X-X-X-X-X-X-X-X-X-X-X-X-X-X-X-X-X-X-X-X-X-X-X-X-X-X-X&X&X7X'.M .                                               ",
". ! 4X&X-X-X-X-X-X-X-X-X-X-X-X-X-X-X-X-X-X-X-X-X-X-X-X-X-X-X-X-X-X-X-X,X9XS.: .                                                 ",
". _ 7X&X-X-X-X-X-X-X-X-X-X-X-X-X-X-X-X-X-X-X-X-X-X-X-X-X-X-X-X-X-X-X-X&Xq.. .                                                   ",
". ] 7X&X-X-X-X-X-X-X-X-X-X-X-X-X-X-X-X-X-X-X-X-X-X-X-X-X-X-X-X-X-X&X,XQ.. .                                                     ",
". ) 7X&X-X-X-X-X-X-X-X-X-X-X-X-X-X-X-X-X-X-X-X-X-X-X-X-X-X-X-X-X-X-X&X4XH.. .                                                   ",
". R 4X-X-X-X-X-X-X-X-X-X-X-X-X-X-X-X-X-X-X-X-X-X-X-X-X-X-X-X-X-X-X-X&X&X9XU.. .                                                 ",
". n -X-X-X-X-X-X-X-X-X-X-X-X-X-X-X-X-X-X-X-X-X-X-X-X-X-X-X-X-X-X-X-X-X-X@X9XT.& .                                               ",
"  7  X,X&X-X-X-X-X-X-X-X-X-X-X-X-X-X-X-X-X-X-X-X-X-X-X-X-X-X-X-X-X-X-X-X-X@X9X!.7 .                                             ",
"  . P.7X&X&X-X-X-X-X-X-X-X-X-X-X-X-X-X-X-X-X-X-X-X-X-X-X-X-X-X-X-X-X-X-X-X-X@X9X/.e .                                           ",
"  . d.0X&X-X-X-X-X-X-X-X-X-X-X-X-X-X-X-X-X-X-X-X-X-X-X-X-X-X-X-X-X-X-X-X-X-X-X@X4X'.a .                                         ",
"  . _ 7X-X-X-X-X-X-X-X-X-X-X-X-X-X-X-X-X-X-X-X-X-X-X-X-X-X-X-X-X-X-X-X-X-X-X-X-X&X4X}.k .                                       ",
"  . q .X,X&X-X-X-X-X-X-X-X-X-X-X-X-X-X-X-X-X-X-X-X-X-X-X-X-X-X-X-X-X-X-X-X-X-X-X-X@X4X.Xb .                                     ",
"    . l.9X&X&X-X-X-X-X-X-X-X-X-X-X-X-X-X-X-X-X-X-X-X-X-X-X-X-X-X-X-X-X-X-X-X-X-X-X-X&X4XXXN .                                   ",
"    . W 4X&X-X-X-X-X-X-X-X-X-X-X-X-X-X-X-X-X-X-X-X-X-X-X-X-X-X-X-X-X-X-X-X-X-X-X-X-X-X&X,X&XH .                                 ",
"      . U.4X&X&X-X-X-X-X-X-X-X-X-X-X-X-X-X-X-X-X-X-X-X-X-X-X-X-X-X-X-X-X-X-X-X-X-X-X-X-X&X,X&XT .                               ",
"      . ) 7X&X-X-X-X-X-X-X-X-X-X-X-X-X-X-X-X-X-X-X-X-X-X-X-X-X-X-X-X-X-X-X-X-X-X-X-X-X-X-X&X,X-XQ .                             ",
"        . F.9X@X-X-X-X-X-X-X-X-X-X-X-X-X-X-X-X-X-X-X-X-X-X-X-X-X-X-X-X-X-X-X-X-X-X-X-X-X-X-X&X,X,X/ .                           ",
"        . N -X,X-X-X-X-X-X-X-X-X-X-X-X-X-X-X-X-X-X-X-X-X-X-X-X-X-X-X-X-X-X-X-X-X-X-X-X-X-X-X-X@X,X,X] .                         ",
"          . 6.9X@X-X-X-X-X-X-X-X-X-X-X-X-X-X-X-X-X-X-X-X-X-X-X-X-X-X-X-X-X-X-X-X-X-X-X-X-X-X-X-X&X-X4X...                       ",
"          : . H.9X@X-X-X-X-X-X-X-X-X-X-X-X-X-X-X-X-X-X-X-X-X-X-X-X-X-X-X-X-X-X-X-X-X-X-X-X-X-X-X-X-X-X7X#..                     ",
"            . 0 }.4X@X-X-X-X-X-X-X-X-X-X-X-X-X-X-X-X-X-X-X-X-X-X-X-X-X-X-X-X-X-X-X-X-X-X-X-X-X-X-X-X&X-X7X:..                   ",
"              . n @X4X&X-X-X-X-X-X-X-X-X-X-X-X-X-X-X-X-X-X-X-X-X-X-X-X-X-X-X-X-X-X-X-X-X-X-X-X-X-X-X-X&X-X7X3..                 ",
"                . K &X4X&X-X-X-X-X-X-X-X-X-X-X-X-X-X-X-X-X-X-X-X-X-X-X-X-X-X-X-X-X-X-X-X-X-X-X-X-X-X-X-X&X&X9X6..               ",
"                  . G XX4X@X-X-X-X-X-X-X-X-X-X-X-X-X-X-X-X-X-X-X-X-X-X-X-X-X-X-X-X-X-X-X-X-X-X-X-X-X-X-X-X&X&X7Xi.. ,           ",
"                    . v '.9X@X-X-X-X-X-X-X-X-X-X-X-X-X-X-X-X-X-X-X-X-X-X-X-X-X-X-X-X-X-X-X-X-X-X-X-X-X-X-X-X&X&X9Xs.. .         ",
"                      . , S.9X-X&X-X-X-X-X-X-X-X-X-X-X-X-X-X-X-X-X-X-X-X-X-X-X-X-X-X-X-X-X-X-X-X-X-X-X-X-X-X-X-X@X9Xc.. %       ",
"                        . . 3.-X7X@X-X-X-X-X-X-X-X-X-X-X-X-X-X-X-X-X-X-X-X-X-X-X-X-X-X-X-X-X-X-X-X-X-X-X-X&X&X&X7X,Xd.. X       ",
"                            . n H.7X4X@X-X-X-X-X-X-X-X-X-X-X-X-X-X-X-X-X-X-X-X-X-X-X-X-X-X-X-X-X-X-X-X-X&X&X,X9XT.Y .           ",
"                              . . ../.7X4X&X@X-X-X-X-X-X-X-X-X-X-X-X-X-X-X-X-X-X-X-X-X-X-X-X-X-X&X&X&X&X4X7X'.>.. .             ",
"                                  . . &.T.4X7X4X&X@X&X-X-X-X-X-X-X-X-X-X-X-X-X-X-X-X-X-X-X-X-X@X&X-X7X7X/.<.: .                 ",
"                                      . . ~ b.XX9X9X4X&X&X@X@X-X-X-X-X-X-X-X-X-X-X&X@X&X&X&X,X9X7X&XV. .. .                     ",
"                                          . . y @.b.'.,X9X9X7X4X-X,X-X-X-X-X-X-X-X4X7X9X9X4X}.M.:.h . .                         ",
"                                                . . # D :.f.S.!..X@X-X,X4X,X-X&X.X/.F.k.>.Y 3 . .                               ",
"                                                        . . . . 0 h N G G G A k w . . . . .                                     ",
"                                                                                                                                ",
"                                                                                                                                "
};
