/* XPM */
static char *d5528d1715fa40c1a27b1a89e8d37e4fDYzAulvkOrzj2iTm[] = {
/* columns rows colors chars-per-pixel */
"64 64 8 1 ",
"  c None",
". c black",
"X c #6A6A6A",
"o c #B1AA28",
"O c #D4CB21",
"+ c #DCD227",
"@ c #EFE73B",
"# c #EFEFEF",
/* pixels */
"                                                                ",
"                                                                ",
"                                                                ",
"                                                                ",
"                                                                ",
"                                                                ",
"                                                                ",
"                                                                ",
"                                                                ",
"                                                                ",
"                                                                ",
"                                                                ",
"                                                                ",
"                                                                ",
"                                                                ",
"                                                                ",
"                            ..........                          ",
"                         ...+@@@@@@@@@...                       ",
"                       ..++++++++++++++++..                     ",
"                      .++++oooooooooo++++@+.                    ",
"                     .++ooooooooooooooo+++@+.                   ",
"                    .++oooooOOOOOOOOOOooo++@+.                  ",
"                   .++ooooOOOOOOOOOOOOOooo++@+.                 ",
"                  .++oooOOOOOOOOOOOOOOOOooo++@+.                ",
"                 .++oooOOOOOOOOOOOOOOOOOOooo++@+.               ",
"                .++oooOOOOOOOOOOOOOOOOOOOOooo++@@.              ",
"                .+ooOOOOOOOOOOOOOOOOOOOOOOOooo+++.              ",
"               .++ooOOOOOOOOOOOOOOOOOOOOOOOOooo+++.             ",
"               .+oooOOOOOOOOO........OOOOOOOOoo+++.             ",
"               .+oooOOOOOOOO.oooooooo.OOOOOOOOOo++.             ",
"              .++oooOOOOOOOO.oooooooo.OOOOOOOOOo+++.            ",
"              .++oooOOOOOOOO.oooooooo.OOOOOOOOO@@++.            ",
"              .++oooOOOOOOOO.oooooooo.OOOOOOOOO@@++.            ",
"              .++oooOOOOOOOO.ooooooooOOOOOOOOOO@@++.            ",
"              .++oooOOOOOOOO.oooooooo#OOOOOOOOO@@++.            ",
"              .++oooOOOOOOOO.oooooooo#OOOOOOOOO@@++.            ",
"              .++oooOOOOOOOO.oooooooo#OOOOOOOOO@@++.            ",
"              .++oooOOOOOOOO.ooooooooOOOOOOOOOO@@++.            ",
"              .++oooOOOOOOOO.oooooooo#OOOOOOOOO@@++.            ",
"               .++ooOOOOOOOO.oooooooo#OOOOOOOOO@@+.             ",
"               .++ooOOOOOOOO.oooooooo#OOOOOOOOO@++.             ",
"               .++ooOOOOOOOO.oooooooo#OOOOOOOO@@++.             ",
"                .++ooOOOOOOOO########OOOOOOOO@@++.              ",
"                .+++oooOOOOOOOOOOOOOOOOOOOOO@@@++.              ",
"                 .+++oooOOOOOOOOOOOOOOOOOOO@@+++.               ",
"                  .+++oooOOOOOOOOOOOOOOOOO@@+++.                ",
"                   .+++oooOOOOOOOOOOOOOOO@@+++.                 ",
"                    .+++oooOOOOOOOOOOOOO@@@++.                  ",
"                     .+++ooOOOOOOOOOOOO@@@++.                   ",
"                      .+++ooo@@@@@@@@@@@+++.                    ",
"                       ..++++oooooo@@@+++..                     ",
"                         ...++++++++++...                       ",
"                            ..........                          ",
"                                                                ",
"                                                                ",
"                                                                ",
"                                                                ",
"                       XXXXXXXXXXXXXXXXXX                       ",
"                    XXXXXXXXXXXXXXXXXXXXXXXXX                   ",
"                 XXXXXXXXXXXXXXXXXXXXXXXXXXXXXXX                ",
"                       XXXXXXXXXXXXXXXXXXXX                     ",
"                                                                ",
"                                                                ",
"                                                                "
};
