/* XPM */
static char *_9138f61d6064e73aec2920fa169bb7c1IKBAD44ly46rJqZ[] = {
/* columns rows colors chars-per-pixel */
"64 64 3 1 ",
"  c None",
". c #3D3756",
"X c white",
/* pixels */
"                                                                ",
"                                                                ",
"                                                                ",
"                                                                ",
"                                                                ",
"                                                                ",
"                                                                ",
"                             ...........                        ",
"                          ...XXXXXXXXXXX...                     ",
"                         .XXXXXXXXXXXXXXXXX.                    ",
"                        .XXXXXXXXXXXXXXXXXXX.                   ",
"                       .XXXXXXXXXXXXXXXXXXXXX..                 ",
"                      .XXXXXXXXXXXXXXXXXXXXXX..                 ",
"                     .XXXXXXXXXXXXXXXXXXXXXXXX.                 ",
"                     .XXXXXXXXXXXXXXXXXXXXXXXX.                 ",
"                    .XXXXXXXXXXXXXXXXXXXXXXXXX.                 ",
"                   .XXXXXXXXXXXXXXXXXXXXXXXXXX.                 ",
"                   .XXXXXXXXXXXXXXXXXXXXXXXXXX.                 ",
"                   .XXXX.XXXXXXXXX.XXXXXXXXXXX.                 ",
"                  .XXXX..XXXXXXXXX..XXXXXXXXXX.                 ",
"                  .XXX..XXXXXXXXXX...XXXXXXXXXX.                ",
"                  .XXXXXXXXXXXXXXXXXXXXXXXXXXXX.                ",
"                 .XXXXXXXXXXXXXXXXXXXXXXXXXXXXX.                ",
"                 .XXXXXXXXXXXXXXXXXXXXXXXXXXXXXX.               ",
"                 .XXXXXXXXXXXXXXXXXXXXXXXXXXXXXX.               ",
"                 .XXXXXXXXXXXXXXXXXXXXXXXXXXXXXXX.              ",
"                 .XXXXX.XXXXXXXXXXXXXXXXXXXXXXXXX.              ",
"                 .XXXX.XXXXXXXXXXXXXX..XXXXXXXXXXX.             ",
"                 .XXX.XXXXXXXXXXXX..XX.XXXXXXXXXXX.             ",
"                 .XXXX............X..X.XXXXXXXXXXXX.            ",
"                 .XXXXXXXXXXXXXXXXXXXXXXXXXXXXXXXXX.            ",
"                 .XXXXXXXXXXXXXXXXXXXXXXXXXXXXXXXXXX.           ",
"                 .XXXXXXXXXXXXXXXXXXXXXXXXXXXXXXXXXX.           ",
"                 .XXXXXXXXXXXXXXXXXXXXXXXXXXXXXXXXXX.           ",
"                 .XXXXXXXXXXXXXXXXXXXXXXXXXXXXXXXXXXX.          ",
"                ..XXXXXXXXXXXXXXXXXXXXXXXXXXXXXXXXXXX.          ",
"               .XXXXXXXXXXXXXXXXXXXXXXXXXXXXXXXXXXXXX.          ",
"              .XXXXXXXXXXXXXXXXXXX  XXXXXXXXXXXXXXXXX.          ",
"             ..XXXXXXXXXXX  XXXXXXX XXXXXXXXXXXXXXXXX.          ",
"           ...XXXXXXXXXXXX XXXXXXX XXXXXXXXXXXXXXXXXX.          ",
"          .XXXXXX  XXXXXX XXXXXXXX XXXXXXXXXXXXXXXXXX.          ",
"         .XXXX   XXXXXXX XXXXXXXX XXXXXXXXXXX XXXXXXX.          ",
"        .XXX  XXXXXXXXX  XXXXXXX XXXXXXXXXXXXX XXXXXX.          ",
"        .XXXXXXXXXXXXXX XXXXXXXX XXXXXXXXXXXXX XXXXXX.          ",
"         ..XXXXXXXXXXX  XXXXXXX XXXXXXXXXXXXXXX XXXX.           ",
"           ....XXXXXXX XXXXXXX XXXXX.....XXXXXX XXX.            ",
"               .XXXXXX XXXXXXX XX...     .XXXXXXXX.             ",
"                ....XXXXX........         ...XXX..              ",
"         .          .....                    ...    ..          ",
"        . ..                                       ..           ",
"            .                                   ...             ",
"             ....                     ....                      ",
"                                  ....    .                     ",
"                                ..                              ",
"                                                                ",
"                                                                ",
"                                                                ",
"                                                                ",
"                                                                ",
"                                                                ",
"                                                                ",
"                                                                ",
"                                                                ",
"                                                                "
};
