/* XPM */
static char *_612225b57634e9ad6611ae2fd12d3fcJBhXfj8jShQ08kWI[] = {
/* columns rows colors chars-per-pixel */
"64 64 10 1 ",
"  c None",
". c black",
"X c #5A1D7E",
"o c #6C3676",
"O c #81297D",
"+ c #641791",
"@ c #B419AD",
"# c #A43AB8",
"$ c #B616D4",
"% c #C0ACAC",
/* pixels */
"                                                                ",
"                                                                ",
"                                                                ",
"                                                                ",
"                                                                ",
"                   .............               ..               ",
"                   ...............           ..++.              ",
"                  ..................       ..+oo@@.             ",
"   ...           ...############.....      .++o@@.              ",
"  .XXO..        ...###############....    ..++.++.              ",
"   .XO@@.       ...#####$#$#########...     .....               ",
"    .OO@.      ...#######$$$$$####%%#...     .                  ",
"     .O@.      ...#$####$$$$$$$$####%#...                       ",
"     .X@.     ...######$$$oo$$$$$$###%#...                      ",
"     .X@.     ...#####$$oooooo$$$$$#####...                     ",
"      ..     ...######$+o$+ooooo$$$$####...                     ",
"            ...####$##$$+$$+++++oo$$$####...                    ",
"            ...###$$o#$$$$+++++oo$$$$$###....                   ",
"           ...###$$$o+$$$$+XX++++$oo$$$###...                   ",
"           ...###$$$++X+++XXXX++++oo$$$###...                   ",
"           ...###$$$o++++XXXXXX+++$$$$$$##...                   ",
"           ...##$$$oo++++XXX@XXX+$$$$o$$$#...                   ",
"          ...###$$$o++++XXX@XXXX$$$+oo$$$#...                   ",
"          ...##$$$oo++++XX@O@@@X$X+++o$$$#...                   ",
"          ...##$$$oo++++X@OO@@@@$X+++o$$$#...                   ",
"          ...#$$$ooo+@++X@O@@OOO$X++++$$$#...                   ",
"         ...##$$$o++XX++X@O@OO@@+++++++++#...                   ",
"         ...##$$$oo+@X@+XXO@OO@OO+XX+o$$$#...                   ",
"         ...##$$oo+oXX@+XX@OOOOO@XX++o$$$#...                   ",
"         ...#$$ooo++XX@@@@OOOOO@@XX$oo$$##...                   ",
"        ...##$$ooo+++X@@@@OOOO@@XX+o$##$#$...                   ",
"        ...##$$ooo+++o@@O@@OOOOOXX+oo$$$##...                   ",
"        ...##$$oo++++XX@O@@OOO@XXXooo$$###...                   ",
"        ...##$$oo+o+XXXXO@@OOO@XXX+++$$###...                   ",
"        ...##$$$o++XXXX+@OOOOOOXX+oo$+$###...                   ",
"        ...##$$$oo++XX++@OOOO@@@@+oo$$####...                   ",
"        ...###$o$@@@XX+X@@OOO@@XX+oo$$###...                    ",
"        ...###$oo@o@XXX+@@OO@OO@X+oo$$###...                    ",
"        ...####$oooo+XX+@@OOO@XXX+oo$$###...                    ",
"        ...####$$ooo$+XX+@OO@OXX++oo$$$#...                     ",
"        ...####$$$$$$+++++OO@OX+++o$$$##...   ...               ",
"       .....###$$$$$$XX+++@@OOX++o+$$###...  .@@@.              ",
"       .....####$o$$$XXX+++OO@XXo+$$$##....  .@@@.              ",
"        .....###$ooo+XXX@++++@X+oo$$$##...   .O$.               ",
"        .....###$$oo++XXX@O@@X@++oo$.$....    ..                ",
"        .....####o$$oooXXX@@@@X+oo$......   .                   ",
"         ....#####$$$$$oX@@@XX++oo$$.....   ..                  ",
"          .....####ooo++XXXXXX+oo$$$... .   .#.                 ",
"          .....####ooo+++++XX++oo$##....   .X#.                 ",
"           ....#####oo+++XXX++oo###...#....@@#.                 ",
"            ...%%###oo+++XX++oo####....oooX@#.                  ",
"            ...##%##ooo+++X+oooo$$#... ..oo#.                   ",
"             ...##%%#ooo++++ooo$##...    ...                    ",
"              ...####ooo+++oo$$###...                           ",
"               ...####ooo+oo$o###...                            ",
"               ...####$$$$$$o##....                             ",
"                ...#####oooo##....                              ",
"                 ...########.....                               ",
"                  .............                                 ",
"                   ...........                                  ",
"                    .........                                   ",
"                                                                ",
"                                                                ",
"                                                                "
};
