/* XPM */
static char *a65e3cf4b64b4f47eb2fc389777ed91eTQLbGuYKmvTd9V3c[] = {
/* columns rows colors chars-per-pixel */
"64 64 4 1 ",
"  c None",
". c black",
"X c #F7EC00",
"o c #D8D8D8",
/* pixels */
"                                                                ",
"                                                                ",
"                                                                ",
"                                                                ",
"                                                                ",
"                                                                ",
"                                                                ",
"                         ............                           ",
"                     ....XXXXXXXXXXXX....                       ",
"                   ..XXXXXXXXXXXXXXXXXXXX..                     ",
"                 ..XXXXXXXXXXXXXXXXXXXXXXXX..                   ",
"               ..XXXXXXXXXXXXXXXXXXXXXXXXXXXX..                 ",
"              .XXXXXXXXXXXXXXXXXXXXXXXXXXXXXXXX.                ",
"             .XXXXXXXXXXXXXXXXXXXXXXXXXXXXXXXXXX.               ",
"            .XXXXXXXXXXXXXXXXXXXXXXXXXXXXXXXXXXXX.              ",
"           .XXXXXXXXXXXXXXXXXXXXXXXXXXXXXXXXXXXXXX.             ",
"          .XXXXXXXXXXXXXXXXXXXXXXXX....XXXXXXXXXXXX.            ",
"         .XXXXXXXXXXXXXXXXXXXXXXXX...o.....XXXXXXX.o.           ",
"        .XXXXXXXXXXXXXXXXXXXXXXXX...ooooooo.XXXXX.ooo.          ",
"        .XXXXXXXXXXXXXXXXXXXXXXXX.oooooooooo.XXX.oo...          ",
"       .XXXXXXXXXXXXXXXXXXXXXXXXX.ooooooooo.XXXX.oo..X.         ",
"       .XXXXXXXXXXXXXXXXXXXXXXXXX.oooooooo.XXXXXX.oo.X.         ",
"      .XXXXXXXXXXXXXXXXXXXXXXXXXX.oooooo..XXXXXXXX..XXX.        ",
"      .XXXXXXXXXXXXXXXXXXXXXXXXXXX......XXXXXXXXXXXXXXX.        ",
"      .XXXXXXXXXXXXXXXXXXXXXXXXXXXXXXXXXXXXXXXXXXXXXXXX.        ",
"     .XXXXXXXXXXXXXXXXXXXXXXXXXXXXXXXXXXXXXXXXXXXXXXXXXX.       ",
"     .XXXXXXXXXXXXXXXXXXXXXXXXXXXXXXXXXXXXXXXXXXXXXXXXXX.       ",
"     .XXXXXXXXXXXXXXXXXXXXXXXXXXXXXXXXXXXXXXXXXXXXXXXXXX.       ",
"     .XXXXXXXXXXXX.XXXXXXXXXXXXXXXXXXXXXXXXXXXXXXXXXXXXX.       ",
"     .XXXXXXXXXXX.XXXXXXXXXXXXXXXXXXXXXXXXXXXXXXXXXXXXXX.       ",
"     .XXXXXXXXXX.X.XXXXXXXXXXXXXXXXXXXXXXXXXXXXXXXXXXX...       ",
"     .XXXXXXXXXX.XX.....XXXXXXXXXXXXXXXXXXXXXXX.......XX.       ",
"     .XXXXXXXXXX.XXXXXXX.......................XXXXXXXXX.       ",
"     .XXXXXXXXXXXXXXXXXXXXXXXXXXXXXXXXXXXXXXXXXXXXXXXXXX.       ",
"      .XXXXXXXXXXXXXXXXXXXXXXXXXXXXXXXXXXXXXXXXXXXXXXXX.        ",
"      .XXXXXXXXXXXXXXXXXXXXXXXXXXXXXXXXXXXXXXXXXXXXXXXX.        ",
"      .XXXXXXXXXXXXXXXXXXXXXXXXXXXXXXXXXXXXXXXXXXXXXXXX.        ",
"       .XXXXXXXXXXXXXXXXXXXXXXXXXXXXXXXXXXXXXXXXXXXXXX.         ",
"       .XXXXXXXXXXXXXXXXXXXXXXXXXXXXXXXXXXXXXXXXXXXXXX.         ",
"        .XXXXXXXXXXXXXXXXXXXXXXXXXXXXXXXXXXXXXXXXXXXX.          ",
"        .XXXXXXXXXXXXXXXXXXXXXXXXXXXXXXXXXXXXXXXXXXXX.          ",
"         .XXXXXXXXXXXXXXXXXXXXXXXXXXXXXXXXXXXXXXXXXX.           ",
"          .XXXXXXXXXXXXXXXXXXXXXXXXXXXXXXXXXXXXXXXX.            ",
"           .XXXXXXXXXXXXXXXXXXXXXXXXXXXXXXXXXXXXXX.             ",
"            .XXXXXXXXXXXXXXXXXXXXXXXXXXXXXXXXXXXX.              ",
"             .XXXXXXXXXXXXXXXXXXXXXXXXXXXXXXXXXX.               ",
"              .XXXXXXXXXXXXXXXXXXXXXXXXXXXXXXXX.                ",
"               ..XXXXXXXXXXXXXXXXXXXXXXXXXXXX..                 ",
"                 ..XXXXXXXXXXXXXXXXXXXXXXXX..                   ",
"                   ..XXXXXXXXXXXXXXXXXXXX..                     ",
"                     ....XXXXXXXXXXXX....                       ",
"                         ............                           ",
"                                                                ",
"                                                                ",
"                                                                ",
"                                                                ",
"                                                                ",
"                                                                ",
"                                                                ",
"                                                                ",
"                                                                ",
"                                                                ",
"                                                                ",
"                                                                "
};
