/* XPM */
static char *_5e4cf8b8d4d4333cfb89401e28584e0bfK9TiRQ8F7lVx1p[] = {
/* columns rows colors chars-per-pixel */
"64 64 6 1 ",
"  c None",
". c black",
"X c #0C0C0C",
"o c #C4BB00",
"O c #F7EC00",
"+ c #D8D8D8",
/* pixels */
"                                                                ",
"                                                                ",
"                                                                ",
"                                                                ",
"                                                                ",
"                                                                ",
"                                                                ",
"                         ............                           ",
"                     ....OOOOOOOOOOOO....                       ",
"                   ..OOOOOOOOOOOOOOOOOOOO..                     ",
"                 ..OOOOOOOOOOOOOOOOOOOOOOOO..                   ",
"               ..OOOOOOOOOOOOOOOOOOOOOOOOOOOO..                 ",
"              .OOOOOOOOOOOOOOOOOOOOOOOOOOOOOOOO.                ",
"             .OOOOOOOOOOOOOOOOOOOOOOOOOOOOOOOOOO.               ",
"            .OOOOOOOOOOOOOOOOOOOOOOOOOOOOOOOOOOOO.              ",
"           .OOOOOOOOOOOOOOOOOOOOOOOOOOOOOOOOOOOOOO.             ",
"          .OOOOOOOOOOOOOOOOOOOOOOOOOOOOOOOOOOOOOOOO.            ",
"         .OOOOOOOOOOOOOOOOOOOOOOO.........OOOOOOO....           ",
"        .OOOOOOOOOOOOOOOOOOOOOOO...+++++++.OOOOO.++++.          ",
"        .OOOOOOOOOOOOOOOOOOOOOO....+++++++.OOOO.++++..          ",
"       .OOOOOOOOOOOOOOOOOOOOOOO.+++++++++.OOOOOO.+++...         ",
"       .OOOOOOOOOOOOOOOOOOOOOOO.++++++++.OOOOOOOO......         ",
"      .OOOOOOOOOOOOOOOOOOOOOOOO.+++++++.OOOOOOOOOOOOO.O.        ",
"      .OOOOOOOOOOOOOOOOOOOOOOOOO..++...OOOOOOOOOOOOOOOO.        ",
"      .OOOOOOOOOOOOOOOOOOOOOOOOOOO..OOOOOOOOOOOOOOOOOOX.        ",
"     .OOOOOOOOOOOOOOOOOOOOOOOOOOOOOOOOOOOOOOOOOOOXXXXXXX        ",
"     .OOOOOOOOOOOOOOOOOOOOOOOOOOOOOOOOOOOOOOXXXXXXXXX           ",
"     .OOOOOOOOOOOOOOOOOOOOOOOOOOOXXXXXXXXXXXXXXXXXX             ",
"     .OOOOOOOOOOOOOOOOOOOOOOOXXXXXXXXXXXXXXXXXX                 ",
"     .OOOOOOOOOO.OOOOOOOXXXXXXXXXXXXXXXXXXXXXX                  ",
"     .OOOOOOOOO.OOXXXXXXXXXXXXXXXXXXXXXXXXXX                    ",
"     .OOOOOOOOOO.XXXX...XXXXXXXXXXXXXXXXX                       ",
"     .OOOOOOOOOO.OOOOXXX...........XXXX                         ",
"     .OOOOOOOOOOO.OOOOOXXXXXXXXXXXXXXX                          ",
"      .OOOOOOOOOOOOOOOOOOOXXXXXXXXXXXX                          ",
"      .OOOOOOOOOOOOOOOOOOOOOOXXXXXXXXXX                         ",
"      .OOOOOOOOOOOOOOOOOOOOOOOOOXXXXXXXXXXX.                    ",
"       .OOOOOOOOOOOOOOOOOOOOOOOOOOOOXXXXXX.XXXXX                ",
"       .OOOOOOOOOOOOOOOOOOOOOOOOOOOOOOOOOOXXXXXXXXXXX           ",
"        .OOOOOOOOOOOOOOOOOOOOOOOOOOOOOOOOOOOOOOOXXXXX.          ",
"        .OOOOOOOOOOOOOOOOOOOOOOXOOOOOOOOOOOOOOOOOOOOX.          ",
"         .OOOOOOOOOOOOOOOOOOOOOoXXXXOOOOOOOOOOOOOOOO.           ",
"          .OOOOOOOOOOOOOOOOOOOOOooooXXXXXOOOOOOOOOO.            ",
"           .OOOOOOOOOOOOOOOOOOOOOOOooooooOOOOOOOOO.             ",
"            .OOOOOOOOOOOOOOOOOOOOOOOOOOOOOOOOOOOO.              ",
"             .OOOOOOOOOOOOOOOOOOOOOOOOOOOOOOOOOO.               ",
"              .OOOOOOOOOOOOOOOOOOOOOOOOOOOOOOOO.                ",
"               ..OOOOOOOOOOOOOOOOOOOOOOOOOOOO..                 ",
"                 ..OOOOOOOOOOOOOOOOOOOOOOOO..                   ",
"                   ..OOOOOOOOOOOOOOOOOOOO..                     ",
"                     ....OOOOOOOOOOOO....                       ",
"                         ............                           ",
"                                                                ",
"                                                                ",
"                                                                ",
"                                                                ",
"                                                                ",
"                                                                ",
"                                                                ",
"                                                                ",
"                                                                ",
"                                                                ",
"                                                                ",
"                                                                "
};
